<svg width="141" height="137" viewBox="0 0 141 137" fill="none" xmlns="http://www.w3.org/2000/svg">
<g clip-path="url(#clip0_1_3)">
<path d="M26.4179 83.075L46.2684 63.8338L62.7696 79.8342L81.1906 61.9787L70.7285 51.8378H99.9033V80.117L89.4412 69.9761L62.7696 95.829L46.2684 79.8342L31.8269 93.8268C38.382 103.39 48.4427 110.18 59.9702 112.821C71.4978 115.462 83.6301 113.756 93.9085 108.05C104.187 102.343 111.843 93.062 115.325 82.0876C118.806 71.1132 117.854 59.2662 112.66 48.9473C107.466 38.6283 98.419 30.6093 87.3525 26.5151C76.286 22.4209 64.0276 22.5578 53.0614 26.8981C42.0952 31.2384 33.2413 39.4574 28.2941 49.8896C23.3468 60.3219 22.6761 72.187 26.4179 83.0807V83.075ZM17.4438 91.8868L17.3854 91.8303L17.4088 91.8077C14.0824 84.5683 12.3686 76.7303 12.379 68.8053C12.379 37.5681 38.5021 12.2468 70.7285 12.2468C102.955 12.2468 129.078 37.5681 129.078 68.8053C129.078 100.043 102.955 125.364 70.7285 125.364C46.9803 125.364 26.558 111.62 17.4438 91.8868Z" fill="#FE7C6F"/>
</g>
<defs>
<clipPath id="clip0_1_3">
<rect width="140.039" height="135.74" fill="white" transform="translate(0.709154 0.935108)"/>
</clipPath>
</defs>
</svg>
