<svg width="710" height="415" viewBox="0 0 710 415" fill="none" xmlns="http://www.w3.org/2000/svg">
<path d="M647.712 413.966C647.599 414.092 647.438 414.163 647.269 414.163H126.562C126.396 414.163 126.238 414.094 126.126 413.972C111.072 397.631 98.946 381.84 89.0545 365.696C77.4673 346.784 68.8072 327.272 62.5794 306.045C52.1653 270.549 46.9361 228.803 47.8558 188.497C48.9026 142.605 57.8827 101.956 73.8251 70.9443C90.9771 37.5792 115.675 15.7982 147.232 6.20516C163.892 1.14112 181.452 0.868399 200.912 5.37193C216.256 8.92266 232.946 15.575 251.936 25.7078C272.947 36.9196 293.447 50.1941 313.272 63.0312C330.465 74.1642 348.243 85.6763 366.274 95.7893C388.035 107.995 407.868 116.74 426.907 122.524C449.259 129.316 470.732 131.923 490.729 130.273C508.033 128.846 526.352 124.539 544.068 120.373C571.317 113.966 599.493 107.341 624.774 110.985C638.423 112.952 650.147 117.668 660.619 125.402C672.36 134.073 682.227 146.281 690.782 162.721C700.551 181.495 706.671 202.819 708.971 226.099C711.125 247.908 709.893 270.832 705.31 294.236C700.899 316.761 693.604 338.694 683.627 359.423C673.661 380.132 661.578 398.483 647.712 413.966ZM126.511 412.584C126.7 412.79 126.968 412.908 127.247 412.908H646.57C646.855 412.908 647.126 412.787 647.315 412.574C660.904 397.291 672.76 379.222 682.56 358.857C692.489 338.227 699.749 316.4 704.139 293.983C708.698 270.705 709.923 247.909 707.781 226.228C705.498 203.115 699.426 181.95 689.733 163.323C681.267 147.055 671.519 134.987 659.931 126.428C649.619 118.813 638.066 114.167 624.612 112.228C599.546 108.615 571.475 115.215 544.329 121.598C526.572 125.773 508.211 130.09 490.823 131.524C470.681 133.187 449.066 130.563 426.575 123.73C407.455 117.921 387.546 109.144 365.711 96.8965C347.648 86.765 329.853 75.2429 312.645 64.0995C292.84 51.2756 272.361 38.0152 251.394 26.8266C232.495 16.7422 215.899 10.1253 200.655 6.59745C181.394 2.14006 164.027 2.40619 147.564 7.4106C116.326 16.9063 91.8711 38.4828 74.8769 71.5402C39.9499 139.481 44.6108 240.535 63.7218 305.675C69.917 326.791 78.5323 346.202 90.0597 365.016C99.8043 380.921 111.732 396.486 126.511 412.584Z" fill="#D3DFFF"/>
<path d="M657.22 319.508C695.368 199.006 692.891 11.9418 537.12 0.467635C486.172 -3.2852 434.336 16.2472 387.061 34.0734C347.917 48.8333 297.736 70.5178 285.53 117.062C280.738 135.333 279.356 168.659 254.339 166.746C187.876 161.666 110.644 116.002 66.4015 194.794C28.4502 262.381 54.4817 359.021 106.602 413.218C106.79 413.413 107.048 413.522 107.32 413.522H597.068C597.334 413.522 597.589 413.415 597.777 413.226C623.291 387.503 644.929 358.33 657.22 319.508Z" fill="#EAF0FF"/>
<path d="M418.801 299.22H292.91C292.358 299.22 291.91 299.668 291.91 300.22V412.456C291.91 413.008 292.358 413.456 292.91 413.456H418.801C419.353 413.456 419.801 413.008 419.801 412.456V300.22C419.801 299.668 419.353 299.22 418.801 299.22Z" fill="#3A6BEA"/>
<path opacity="0.6" d="M419.801 373.318C419.801 373.907 419.294 374.369 418.707 374.313L292.816 362.468C292.303 362.42 291.91 361.988 291.91 361.472V300.22C291.91 299.668 292.358 299.22 292.91 299.22H418.801C419.353 299.22 419.801 299.668 419.801 300.22V373.318Z" fill="#1F3C88"/>
<path d="M552.019 339.942H159.692C154.077 339.942 149.526 335.162 149.526 329.265V44.6973C149.526 38.8007 154.077 34.0203 159.692 34.0203H552.019C557.633 34.0203 562.185 38.8007 562.185 44.6973V329.265C562.185 335.162 557.633 339.942 552.019 339.942Z" fill="#3A6BEA"/>
<path d="M541.663 48.4297H170.055C169.502 48.4297 169.055 48.8775 169.055 49.4297V317.541C169.055 318.093 169.502 318.541 170.055 318.541H541.663C542.215 318.541 542.663 318.093 542.663 317.541V49.4297C542.663 48.8775 542.215 48.4297 541.663 48.4297Z" fill="white"/>
<path opacity="0.3" d="M332.217 123.135V317.541C332.217 318.093 331.769 318.541 331.217 318.541H170.055C169.502 318.541 169.055 318.093 169.055 317.541V116.603C169.055 116.051 169.502 115.603 170.055 115.603H325.045C329.006 115.603 332.217 118.975 332.217 123.135Z" fill="#86A7FF"/>
<path opacity="0.3" d="M541.663 115.603C542.215 115.603 542.663 116.051 542.663 116.603V317.541C542.663 318.093 542.215 318.541 541.663 318.541H372.313C371.761 318.541 371.313 318.093 371.313 317.541V123.135C371.313 118.975 374.524 115.603 378.484 115.603H541.663Z" fill="#86A7FF"/>
<path d="M111.553 288.03C111.553 293.577 115.834 298.073 121.114 298.073H306.717C311.998 298.073 316.279 293.577 316.279 288.03V89.8266C316.279 89.2743 315.832 88.8266 315.279 88.8266H112.553C112 88.8266 111.553 89.2743 111.553 89.8266V288.03Z" fill="white"/>
<path d="M306.717 298.701H121.114C115.513 298.701 110.955 293.914 110.955 288.03V89.1989C110.955 88.6466 111.403 88.1989 111.955 88.1989H315.877C316.429 88.1989 316.877 88.6466 316.877 89.1989V288.03C316.877 293.914 312.319 298.701 306.717 298.701ZM113.15 89.4543C112.598 89.4543 112.15 89.902 112.15 90.4543V288.03C112.15 293.222 116.172 297.445 121.114 297.445H306.717C311.66 297.445 315.682 293.222 315.682 288.03V90.4543C315.682 89.902 315.234 89.4543 314.682 89.4543H113.15Z" fill="#3A6BEA"/>
<path d="M306.717 66.8246H121.114C115.834 66.8246 111.553 71.3209 111.553 76.8673V87.8266C111.553 88.3789 112 88.8266 112.553 88.8266H315.279C315.832 88.8266 316.279 88.3789 316.279 87.8266V76.8673C316.279 71.3209 311.998 66.8246 306.717 66.8246Z" fill="#3A6BEA"/>
<path d="M316.877 88.4543C316.877 89.0065 316.429 89.4543 315.877 89.4543H111.955C111.403 89.4543 110.955 89.0065 110.955 88.4543V76.8673C110.955 70.9835 115.513 66.1969 121.114 66.1969H306.717C312.32 66.1969 316.877 70.9835 316.877 76.8673V88.4543ZM112.15 87.1989C112.15 87.7512 112.598 88.1989 113.15 88.1989H314.682C315.234 88.1989 315.682 87.7512 315.682 87.1989V76.8673C315.682 71.6758 311.66 67.4522 306.717 67.4522H121.114C116.172 67.4522 112.15 71.6758 112.15 76.8673V87.1989Z" fill="#3A6BEA"/>
<path d="M126.895 82.1316C129.205 82.1316 131.078 80.1644 131.078 77.7379C131.078 75.3113 129.205 73.3442 126.895 73.3442C124.584 73.3442 122.711 75.3113 122.711 77.7379C122.711 80.1644 124.584 82.1316 126.895 82.1316Z" fill="white"/>
<path d="M298.176 165.03C298.176 165.582 297.729 166.03 297.176 166.03H130.655C130.103 166.03 129.655 165.582 129.655 165.03V107.401C129.655 106.849 130.103 106.401 130.655 106.401H297.176C297.729 106.401 298.176 106.849 298.176 107.401V165.03ZM130.851 163.775C130.851 164.327 131.298 164.775 131.851 164.775H295.981C296.533 164.775 296.981 164.327 296.981 163.775V108.657C296.981 108.104 296.533 107.657 295.981 107.657H131.851C131.298 107.657 130.851 108.104 130.851 108.657V163.775Z" fill="#DADADA"/>
<path d="M296.951 150.181H130.881C130.534 150.181 130.253 150.462 130.253 150.809C130.253 151.156 130.534 151.437 130.881 151.437H296.951C297.298 151.437 297.579 151.156 297.579 150.809C297.579 150.462 297.298 150.181 296.951 150.181Z" fill="#DADADA"/>
<path d="M296.951 135.588H130.881C130.534 135.588 130.253 135.869 130.253 136.216C130.253 136.562 130.534 136.843 130.881 136.843H296.951C297.298 136.843 297.579 136.562 297.579 136.216C297.579 135.869 297.298 135.588 296.951 135.588Z" fill="#DADADA"/>
<path d="M296.951 120.995H130.881C130.534 120.995 130.253 121.276 130.253 121.622C130.253 121.969 130.534 122.25 130.881 122.25H296.951C297.298 122.25 297.579 121.969 297.579 121.622C297.579 121.276 297.298 120.995 296.951 120.995Z" fill="#DADADA"/>
<path d="M281.444 164.805V107.627C281.444 107.297 281.176 107.029 280.846 107.029C280.516 107.029 280.249 107.297 280.249 107.627V164.805C280.249 165.135 280.516 165.402 280.846 165.402C281.176 165.402 281.444 165.135 281.444 164.805Z" fill="#DADADA"/>
<path d="M264.711 164.805V107.627C264.711 107.297 264.444 107.029 264.113 107.029C263.783 107.029 263.516 107.297 263.516 107.627V164.805C263.516 165.135 263.783 165.402 264.113 165.402C264.444 165.402 264.711 165.135 264.711 164.805Z" fill="#DADADA"/>
<path d="M247.979 164.805V107.627C247.979 107.297 247.711 107.029 247.381 107.029C247.051 107.029 246.783 107.297 246.783 107.627V164.805C246.783 165.135 247.051 165.402 247.381 165.402C247.711 165.402 247.979 165.135 247.979 164.805Z" fill="#DADADA"/>
<path d="M231.246 164.805V107.627C231.246 107.297 230.979 107.029 230.649 107.029C230.318 107.029 230.051 107.297 230.051 107.627V164.805C230.051 165.135 230.318 165.402 230.649 165.402C230.979 165.402 231.246 165.135 231.246 164.805Z" fill="#DADADA"/>
<path d="M214.514 164.805V107.627C214.514 107.297 214.246 107.029 213.916 107.029C213.586 107.029 213.318 107.297 213.318 107.627V164.805C213.318 165.135 213.586 165.402 213.916 165.402C214.246 165.402 214.514 165.135 214.514 164.805Z" fill="#DADADA"/>
<path d="M197.781 164.805V107.627C197.781 107.297 197.513 107.029 197.183 107.029C196.853 107.029 196.586 107.297 196.586 107.627V164.805C196.586 165.135 196.853 165.402 197.183 165.402C197.513 165.402 197.781 165.135 197.781 164.805Z" fill="#DADADA"/>
<path d="M181.048 164.805V107.627C181.048 107.297 180.781 107.029 180.451 107.029C180.121 107.029 179.853 107.297 179.853 107.627V164.805C179.853 165.135 180.121 165.402 180.451 165.402C180.781 165.402 181.048 165.135 181.048 164.805Z" fill="#DADADA"/>
<path d="M164.316 164.805V107.627C164.316 107.297 164.048 107.029 163.718 107.029C163.388 107.029 163.12 107.297 163.12 107.627V164.805C163.12 165.135 163.388 165.402 163.718 165.402C164.048 165.402 164.316 165.135 164.316 164.805Z" fill="#DADADA"/>
<path d="M147.583 164.805V107.627C147.583 107.297 147.316 107.029 146.986 107.029C146.656 107.029 146.388 107.297 146.388 107.627V164.805C146.388 165.135 146.656 165.402 146.986 165.402C147.316 165.402 147.583 165.135 147.583 164.805Z" fill="#DADADA"/>
<path d="M297.393 165.72C297.09 165.877 296.717 165.751 296.571 165.442C295.481 163.137 294.221 160.631 292.316 158.884C289.9 156.669 286.899 156.257 284.67 157.836C284.203 158.167 283.711 158.668 283.19 159.198C281.772 160.642 280.007 162.439 277.747 161.478C276.105 160.781 275.16 159.461 274.245 158.184C273.664 157.375 273.116 156.61 272.403 156.001C270.709 154.553 268.605 154.667 265.783 156.359L265.591 156.474C263.894 157.496 261.781 158.768 259.808 156.352C258.87 155.203 258.629 153.776 258.397 152.396C258.2 151.229 258.014 150.127 257.428 149.252C255.709 146.697 253.328 145.808 250.897 146.81C249.666 147.318 248.238 149.062 246.725 150.909C244.526 153.595 242.089 156.569 239.46 156.57C238.827 156.57 238.182 156.397 237.527 156.006C235.44 154.76 235.597 152.048 235.735 149.656C235.863 147.437 235.984 145.342 234.587 144.421C232.804 143.246 230.49 145.347 229.37 147.047C227.69 149.595 224.898 152.036 222.447 151.743C221.408 151.619 219.967 150.939 219.004 148.402C218.235 146.381 218.356 144.195 218.474 142.082C218.554 140.63 218.63 139.259 218.431 137.975C218.128 136.024 216.629 133.408 214.252 133.705C212.562 133.915 211.726 135.529 210.84 137.238C210.347 138.188 209.837 139.171 209.16 139.914C208.126 141.049 207.121 141.49 206.175 141.226C205.068 140.917 204.229 139.68 203.747 137.649C203.724 137.552 203.697 137.424 203.664 137.273C203.057 134.46 202.597 134.053 202.427 134.008C202.403 134.002 202.268 134.037 202.033 134.321C201.438 135.044 201.439 136.126 201.44 137.271C201.441 138.246 201.443 139.254 201.075 140.151C200.579 141.363 199.499 142.199 198.111 142.445C196.37 142.754 194.441 142.089 193.31 140.79C191.682 138.92 191.062 136.057 191.467 132.28C191.794 129.24 191.734 121.068 189.654 119.816C189.133 119.503 188.425 119.692 187.549 120.38C186.277 121.379 185.503 124.058 185.3 126.269C184.871 130.966 183.462 135.612 181.226 139.705C180.532 140.976 179.529 142.471 177.921 142.751C177.067 142.9 176.218 142.663 175.465 142.066C174.425 141.243 173.678 139.818 173.517 138.348C173.385 137.144 173.524 135.954 173.658 134.804C173.764 133.895 173.865 133.036 173.841 132.173C173.791 130.347 172.819 128.367 171.278 128.214C170.481 128.132 168.936 129.586 167.696 130.752C165.886 132.456 164.322 133.924 163.006 133.415C162.278 133.132 161.84 132.317 161.664 130.923C161.634 130.687 161.619 130.425 161.603 130.147C161.533 128.937 161.426 128 160.745 127.846C160.126 127.706 159.82 127.893 159.642 128.046C158.527 129.012 158.591 132.53 158.629 134.631C158.648 135.682 158.663 136.512 158.568 137.01C158.298 138.428 157.329 139.8 156.159 140.423C155.312 140.875 154.41 140.911 153.619 140.526C151.875 139.677 151.56 137.446 151.481 135.598L150.941 123.085C150.877 121.599 150.642 119.556 149.35 118.973C148.907 118.773 148.425 118.781 147.916 118.996C147.064 119.356 146.243 120.263 145.824 121.307C145.537 122.02 145.354 122.778 145.16 123.58C144.888 124.704 144.607 125.867 144.014 126.916C143.335 128.119 142.024 129.026 140.753 129.173C139.835 129.28 139.008 128.981 138.426 128.332C137.404 127.194 137.573 125.641 137.722 124.27C137.796 123.588 137.873 122.882 137.805 122.265C137.654 120.893 136.812 120.133 136.133 119.738C134.848 118.99 133.011 118.852 131.538 119.348C131.204 119.461 130.821 119.328 130.675 119.007C130.538 118.702 130.664 118.341 130.977 118.223C132.8 117.538 135.076 117.688 136.712 118.64C138.039 119.412 138.828 120.616 138.993 122.121C139.076 122.881 138.991 123.66 138.909 124.413C138.773 125.67 138.655 126.757 139.296 127.471C139.624 127.837 140.07 127.99 140.622 127.926C141.524 127.821 142.496 127.142 142.986 126.275C143.491 125.382 143.739 124.357 144.001 123.271C144.197 122.459 144.4 121.62 144.722 120.819C145.267 119.463 146.32 118.318 147.469 117.832C148.273 117.492 149.086 117.488 149.821 117.82C151.73 118.682 152.056 121.205 152.134 123.029L152.674 135.542C152.739 137.036 152.961 138.823 154.121 139.387C154.586 139.613 155.09 139.585 155.618 139.304C156.465 138.852 157.196 137.808 157.396 136.764C157.465 136.399 157.45 135.552 157.433 134.656C157.385 132.028 157.32 128.429 158.882 127.077C159.452 126.585 160.163 126.43 160.996 126.619C162.617 126.986 162.724 128.843 162.795 130.071C162.81 130.326 162.824 130.567 162.848 130.758C162.952 131.586 163.166 132.139 163.42 132.237C164.058 132.486 165.7 130.944 166.898 129.817C168.529 128.282 170.072 126.833 171.39 126.964C173.672 127.191 174.971 129.798 175.035 132.137C175.061 133.094 174.951 134.04 174.844 134.956C174.712 136.083 174.588 137.148 174.704 138.203C174.827 139.327 175.408 140.45 176.184 141.063C176.676 141.453 177.195 141.604 177.725 141.512C178.838 141.318 179.626 140.111 180.189 139.081C182.341 135.141 183.697 130.67 184.11 126.149C184.321 123.845 185.161 120.688 186.833 119.375C188.126 118.359 189.275 118.142 190.248 118.728C193.675 120.791 192.667 132.306 192.654 132.42C192.289 135.821 192.806 138.352 194.192 139.943C195.059 140.939 196.554 141.448 197.912 141.207C198.487 141.105 199.521 140.767 199.976 139.654C200.246 138.995 200.245 138.158 200.244 137.272C200.243 136.009 200.241 134.576 201.129 133.499C201.76 132.734 202.341 132.691 202.717 132.79C203.895 133.1 204.425 135.123 204.829 136.995C204.859 137.136 204.885 137.255 204.906 137.345C205.26 138.839 205.849 139.836 206.48 140.013C207.096 140.185 207.807 139.582 208.295 139.046C208.863 138.423 209.312 137.556 209.788 136.638C210.735 134.813 211.807 132.745 214.111 132.459C216.981 132.104 219.161 134.881 219.609 137.773C219.83 139.194 219.746 140.699 219.666 142.155C219.556 144.131 219.443 146.175 220.112 147.937C220.71 149.511 221.541 150.372 222.581 150.496C224.535 150.731 226.956 148.5 228.386 146.332C230.041 143.821 232.886 141.819 235.221 143.358C237.219 144.675 237.064 147.361 236.927 149.732C236.798 151.955 236.676 154.055 238.116 154.915C240.636 156.419 243.27 153.202 245.817 150.091C247.429 148.123 248.952 146.264 250.458 145.643C253.399 144.429 256.369 145.508 258.403 148.529C259.143 149.634 259.361 150.927 259.572 152.178C259.786 153.447 259.988 154.647 260.714 155.536C261.981 157.088 263.109 156.521 264.995 155.386L265.188 155.269C268.45 153.313 271.056 153.234 273.155 155.028C273.981 155.733 274.6 156.596 275.197 157.43C276.052 158.623 276.859 159.749 278.193 160.315C279.623 160.923 280.77 159.911 282.356 158.297C282.916 157.727 283.446 157.189 284 156.796C286.692 154.89 290.264 155.338 293.1 157.939C295.191 159.856 296.516 162.507 297.661 164.93C297.799 165.222 297.68 165.571 297.393 165.72Z" fill="#3A6BEA"/>
<path d="M174.378 127.986C174.616 126.446 173.62 124.995 172.154 124.745C170.688 124.496 169.307 125.541 169.069 127.081C168.831 128.621 169.826 130.072 171.292 130.322C172.759 130.572 174.14 129.526 174.378 127.986Z" fill="#102048"/>
<path d="M247.215 152.744C248.7 152.744 249.904 151.48 249.904 149.92C249.904 148.36 248.7 147.095 247.215 147.095C245.73 147.095 244.526 148.36 244.526 149.92C244.526 151.48 245.73 152.744 247.215 152.744Z" fill="#102048"/>
<path d="M141.753 184.96H131.402C130.85 184.96 130.402 185.407 130.402 185.96V278.957C130.402 279.51 130.85 279.957 131.402 279.957H141.753C142.305 279.957 142.753 279.51 142.753 278.957V185.96C142.753 185.407 142.305 184.96 141.753 184.96Z" fill="#86A7FF"/>
<path d="M167.533 198.041H157.182C156.63 198.041 156.182 198.489 156.182 199.041V279.057C156.182 279.609 156.63 280.057 157.182 280.057H167.533C168.085 280.057 168.533 279.609 168.533 279.057V199.041C168.533 198.489 168.085 198.041 167.533 198.041Z" fill="#D3DFFF"/>
<path d="M193.312 214.549H182.961C182.409 214.549 181.961 214.996 181.961 215.549V279.182C181.961 279.734 182.409 280.182 182.961 280.182H193.312C193.864 280.182 194.312 279.734 194.312 279.182V215.549C194.312 214.996 193.864 214.549 193.312 214.549Z" fill="#86A7FF"/>
<path d="M219.091 224.684H208.741C208.188 224.684 207.741 225.132 207.741 225.684V279.231C207.741 279.783 208.188 280.231 208.741 280.231H219.091C219.644 280.231 220.091 279.783 220.091 279.231V225.684C220.091 225.132 219.644 224.684 219.091 224.684Z" fill="#D3DFFF"/>
<path d="M244.871 208.86H234.52C233.968 208.86 233.52 209.308 233.52 209.86V279.095C233.52 279.647 233.968 280.095 234.52 280.095H244.871C245.423 280.095 245.871 279.647 245.871 279.095V209.86C245.871 209.308 245.423 208.86 244.871 208.86Z" fill="#86A7FF"/>
<path d="M270.65 234.841H260.299C259.747 234.841 259.299 235.289 259.299 235.841V279.185C259.299 279.737 259.747 280.185 260.299 280.185H270.65C271.202 280.185 271.65 279.737 271.65 279.185V235.841C271.65 235.289 271.202 234.841 270.65 234.841Z" fill="#D3DFFF"/>
<path d="M296.429 260.575H286.079C285.526 260.575 285.079 261.023 285.079 261.575V279.613C285.079 280.166 285.526 280.613 286.079 280.613H296.429C296.982 280.613 297.429 280.166 297.429 279.613V261.575C297.429 261.023 296.982 260.575 296.429 260.575Z" fill="#86A7FF"/>
<path d="M387.856 88.8266C387.304 88.8266 386.856 89.2743 386.856 89.8266V288.03C386.856 293.577 391.137 298.073 396.418 298.073H582.021C587.302 298.073 591.583 293.577 591.583 288.03V89.8266C591.583 89.2743 591.135 88.8266 590.583 88.8266H387.856Z" fill="white"/>
<path d="M582.021 298.701H396.418C390.816 298.701 386.258 293.914 386.258 288.03V89.1989C386.258 88.6466 386.706 88.1989 387.258 88.1989H591.18C591.733 88.1989 592.18 88.6466 592.18 89.1989V288.03C592.18 293.914 587.623 298.701 582.021 298.701ZM388.454 89.4543C387.901 89.4543 387.454 89.902 387.454 90.4543V288.03C387.454 293.222 391.475 297.445 396.418 297.445H582.021C586.964 297.445 590.985 293.222 590.985 288.03V90.4543C590.985 89.902 590.537 89.4543 589.985 89.4543H388.454Z" fill="#3A6BEA"/>
<path d="M591.583 76.8673C591.583 71.3209 587.302 66.8246 582.021 66.8246H396.418C391.137 66.8246 386.856 71.3209 386.856 76.8673V87.8266C386.856 88.3789 387.304 88.8266 387.856 88.8266H590.583C591.135 88.8266 591.583 88.3789 591.583 87.8266V76.8673Z" fill="#3A6BEA"/>
<path d="M592.18 88.4543C592.18 89.0065 591.733 89.4543 591.18 89.4543H387.258C386.706 89.4543 386.258 89.0065 386.258 88.4543V76.8673C386.258 70.9835 390.816 66.1969 396.418 66.1969H582.021C587.623 66.1969 592.18 70.9835 592.18 76.8673V88.4543ZM387.454 87.1989C387.454 87.7512 387.901 88.1989 388.454 88.1989H589.985C590.537 88.1989 590.985 87.7512 590.985 87.1989V76.8673C590.985 71.6758 586.964 67.4522 582.021 67.4522H396.418C391.475 67.4522 387.454 71.6758 387.454 76.8673V87.1989Z" fill="#3A6BEA"/>
<path d="M403.194 82.1316C405.504 82.1316 407.377 80.1644 407.377 77.7379C407.377 75.3113 405.504 73.3442 403.194 73.3442C400.884 73.3442 399.011 75.3113 399.011 77.7379C399.011 80.1644 400.884 82.1316 403.194 82.1316Z" fill="white"/>
<path d="M571.733 184.96H561.382C560.83 184.96 560.382 185.407 560.382 185.96V278.957C560.382 279.51 560.83 279.957 561.382 279.957H571.733C572.285 279.957 572.733 279.51 572.733 278.957V185.96C572.733 185.407 572.285 184.96 571.733 184.96Z" fill="#86A7FF"/>
<path d="M545.953 188.697H535.603C535.05 188.697 534.603 189.145 534.603 189.697V278.986C534.603 279.538 535.05 279.986 535.603 279.986H545.953C546.506 279.986 546.953 279.538 546.953 278.986V189.697C546.953 189.145 546.506 188.697 545.953 188.697Z" fill="#D3DFFF"/>
<path d="M520.174 204.103H509.823C509.271 204.103 508.823 204.551 508.823 205.103V279.083C508.823 279.635 509.271 280.083 509.823 280.083H520.174C520.726 280.083 521.174 279.635 521.174 279.083V205.103C521.174 204.551 520.726 204.103 520.174 204.103Z" fill="#86A7FF"/>
<path d="M494.395 214.825H484.044C483.492 214.825 483.044 215.273 483.044 215.825V279.115C483.044 279.667 483.492 280.115 484.044 280.115H494.395C494.947 280.115 495.395 279.667 495.395 279.115V215.825C495.395 215.273 494.947 214.825 494.395 214.825Z" fill="#D3DFFF"/>
<path d="M468.615 234.581H458.265C457.712 234.581 457.265 235.028 457.265 235.581V279.345C457.265 279.897 457.712 280.345 458.265 280.345H468.615C469.168 280.345 469.615 279.897 469.615 279.345V235.581C469.615 235.028 469.168 234.581 468.615 234.581Z" fill="#86A7FF"/>
<path d="M442.836 250.927H432.485C431.933 250.927 431.485 251.375 431.485 251.927V279.439C431.485 279.992 431.933 280.439 432.485 280.439H442.836C443.388 280.439 443.836 279.992 443.836 279.439V251.927C443.836 251.375 443.388 250.927 442.836 250.927Z" fill="#D3DFFF"/>
<path d="M417.057 260.575H406.706C406.154 260.575 405.706 261.023 405.706 261.575V279.613C405.706 280.166 406.154 280.613 406.706 280.613H417.057C417.609 280.613 418.057 280.166 418.057 279.613V261.575C418.057 261.023 417.609 260.575 417.057 260.575Z" fill="#86A7FF"/>
<path d="M439.34 199.696H416.285C414.309 199.696 412.706 201.378 412.706 203.454V218.248C412.706 220.324 414.309 222.007 416.285 222.007H430.215C430.565 222.007 430.89 222.19 431.071 222.489L434.274 227.783C434.663 228.426 435.596 228.426 435.985 227.783L439.213 222.449C439.387 222.163 439.693 221.992 440.021 221.926C441.671 221.593 442.919 220.078 442.919 218.248V203.454C442.919 201.378 441.316 199.696 439.34 199.696Z" fill="#86A7FF"/>
<path d="M426.908 206.632C427.268 205.866 428.358 205.866 428.718 206.632L429.409 208.104C429.551 208.405 429.834 208.616 430.163 208.667L431.788 208.915C432.593 209.038 432.921 210.02 432.352 210.602L431.116 211.868C430.894 212.095 430.793 212.414 430.844 212.728L431.128 214.462C431.262 215.286 430.388 215.902 429.657 215.499L428.296 214.747C427.995 214.581 427.63 214.581 427.329 214.747L425.968 215.499C425.237 215.902 424.363 215.286 424.498 214.462L424.781 212.728C424.832 212.414 424.731 212.095 424.509 211.868L423.273 210.602C422.704 210.02 423.033 209.038 423.838 208.915L425.462 208.667C425.792 208.616 426.074 208.405 426.216 208.104L426.908 206.632Z" fill="white"/>
<path d="M573.48 165.03C573.48 165.582 573.032 166.03 572.48 166.03H405.959C405.406 166.03 404.959 165.582 404.959 165.03V107.401C404.959 106.849 405.406 106.401 405.959 106.401H572.48C573.032 106.401 573.48 106.849 573.48 107.401V165.03ZM406.154 163.775C406.154 164.327 406.602 164.775 407.154 164.775H571.285C571.837 164.775 572.285 164.327 572.285 163.775V108.657C572.285 108.104 571.837 107.657 571.285 107.657H407.154C406.602 107.657 406.154 108.104 406.154 108.657V163.775Z" fill="#DADADA"/>
<path d="M572.255 150.181H406.184C405.837 150.181 405.556 150.462 405.556 150.809C405.556 151.156 405.837 151.437 406.184 151.437H572.255C572.601 151.437 572.882 151.156 572.882 150.809C572.882 150.462 572.601 150.181 572.255 150.181Z" fill="#DADADA"/>
<path d="M572.255 135.588H406.184C405.837 135.588 405.556 135.869 405.556 136.216C405.556 136.562 405.837 136.843 406.184 136.843H572.255C572.601 136.843 572.882 136.562 572.882 136.216C572.882 135.869 572.601 135.588 572.255 135.588Z" fill="#DADADA"/>
<path d="M572.255 120.995H406.184C405.837 120.995 405.556 121.276 405.556 121.622C405.556 121.969 405.837 122.25 406.184 122.25H572.255C572.601 122.25 572.882 121.969 572.882 121.622C572.882 121.276 572.601 120.995 572.255 120.995Z" fill="#DADADA"/>
<path d="M556.747 164.805V107.627C556.747 107.297 556.48 107.029 556.15 107.029C555.82 107.029 555.552 107.297 555.552 107.627V164.805C555.552 165.135 555.82 165.402 556.15 165.402C556.48 165.402 556.747 165.135 556.747 164.805Z" fill="#DADADA"/>
<path d="M540.015 164.805V107.627C540.015 107.297 539.747 107.029 539.417 107.029C539.087 107.029 538.82 107.297 538.82 107.627V164.805C538.82 165.135 539.087 165.402 539.417 165.402C539.747 165.402 540.015 165.135 540.015 164.805Z" fill="#DADADA"/>
<path d="M523.282 164.805V107.627C523.282 107.297 523.015 107.029 522.685 107.029C522.355 107.029 522.087 107.297 522.087 107.627V164.805C522.087 165.135 522.355 165.402 522.685 165.402C523.015 165.402 523.282 165.135 523.282 164.805Z" fill="#DADADA"/>
<path d="M506.55 164.805V107.627C506.55 107.297 506.282 107.029 505.952 107.029C505.622 107.029 505.354 107.297 505.354 107.627V164.805C505.354 165.135 505.622 165.402 505.952 165.402C506.282 165.402 506.55 165.135 506.55 164.805Z" fill="#DADADA"/>
<path d="M489.817 164.805V107.627C489.817 107.297 489.55 107.029 489.22 107.029C488.89 107.029 488.622 107.297 488.622 107.627V164.805C488.622 165.135 488.89 165.402 489.22 165.402C489.55 165.402 489.817 165.135 489.817 164.805Z" fill="#DADADA"/>
<path d="M473.084 164.805V107.627C473.084 107.297 472.817 107.029 472.487 107.029C472.157 107.029 471.889 107.297 471.889 107.627V164.805C471.889 165.135 472.157 165.402 472.487 165.402C472.817 165.402 473.084 165.135 473.084 164.805Z" fill="#DADADA"/>
<path d="M456.352 164.805V107.627C456.352 107.297 456.084 107.029 455.754 107.029C455.424 107.029 455.156 107.297 455.156 107.627V164.805C455.156 165.135 455.424 165.402 455.754 165.402C456.084 165.402 456.352 165.135 456.352 164.805Z" fill="#DADADA"/>
<path d="M439.619 164.805V107.627C439.619 107.297 439.352 107.029 439.022 107.029C438.692 107.029 438.424 107.297 438.424 107.627V164.805C438.424 165.135 438.692 165.402 439.022 165.402C439.352 165.402 439.619 165.135 439.619 164.805Z" fill="#DADADA"/>
<path d="M422.887 164.805V107.627C422.887 107.297 422.619 107.029 422.289 107.029C421.959 107.029 421.692 107.297 421.692 107.627V164.805C421.692 165.135 421.959 165.402 422.289 165.402C422.619 165.402 422.887 165.135 422.887 164.805Z" fill="#DADADA"/>
<path d="M419.248 156.276C418.938 156.276 418.612 156.242 418.267 156.168C415.605 155.604 415.121 153.092 414.732 151.074C414.329 148.982 414.004 147.693 412.472 147.555C410.869 147.412 408.236 149.344 406.66 150.931C406.414 151.179 406.011 151.191 405.763 150.945C405.531 150.715 405.52 150.345 405.749 150.112C407.16 148.681 410.238 146.093 412.574 146.304C415.076 146.528 415.516 148.811 415.904 150.824C416.349 153.135 416.746 154.565 418.503 154.938C421.42 155.557 422.612 152.438 423.673 148.907L427.368 136.611C427.94 134.706 428.588 132.548 430.041 130.934C431.459 129.36 434.043 128.369 436.04 129.635C437.534 130.58 438.292 132.404 438.295 135.053C438.296 135.532 438.282 136.035 438.267 136.567C438.213 138.525 438.151 140.744 438.83 142.292C439.147 143.016 439.748 143.588 440.397 143.785C440.894 143.936 441.369 143.86 441.81 143.559C443.2 142.61 443.366 140.836 443.543 138.957C443.653 137.78 443.767 136.563 444.204 135.525C445.016 133.595 446.947 132.773 448.897 133.523C452.887 135.058 452.703 140.118 452.581 143.467L452.568 143.84C452.485 146.231 452.74 149.59 454.431 152.013C455.101 152.973 456.005 153.52 456.845 153.478C457.593 153.44 458.254 152.953 458.756 152.067C459.618 150.546 459.722 148.451 459.823 146.425C459.854 145.809 459.883 145.227 459.933 144.666L460.729 135.779C461.059 132.097 462.275 129.896 464.246 129.412C465.123 129.196 465.896 129.33 466.541 129.81C467.553 130.563 468.167 132.103 468.419 134.519C468.487 135.171 468.452 135.906 468.414 136.684C468.292 139.222 468.343 140.922 470.101 141.404C471.183 141.701 472.433 140.887 473.016 139.927C473.778 138.671 473.978 137.089 474.171 135.559C474.227 135.122 474.282 134.687 474.348 134.262C474.815 131.285 475.4 127.779 476.204 124.351L476.215 124.307C476.664 122.39 477.28 119.764 479.195 118.599C480.642 117.719 481.788 117.962 482.495 118.321C484.21 119.191 485.27 121.688 485.561 123.775C485.751 125.145 485.722 126.611 485.694 128.029C485.657 129.92 485.619 131.875 486.112 133.537C486.6 135.182 488.173 137.247 490.147 136.688C492.249 136.091 492.685 134.182 493.19 131.972C493.288 131.542 493.39 131.098 493.505 130.669C494.434 127.213 495.706 122.481 498.555 119.426C500.31 117.544 503.078 117.121 505.284 118.399C508.604 120.323 508.573 124.525 508.546 128.232C508.532 130.157 508.519 131.976 508.938 133.354C509.488 135.16 510.429 136.286 511.736 136.699C512.814 137.04 513.802 136.938 514.674 136.395C516.278 135.396 517.244 133.081 517.612 131.249L517.77 130.458C518.523 126.656 519.557 121.449 521.893 118.569C523.464 116.633 525.574 115.868 527.681 116.47C529.948 117.119 531.7 119.248 532.143 121.894C532.196 122.214 532.243 122.536 532.29 122.858C532.438 123.878 532.579 124.842 532.926 125.731C533.413 126.98 534.24 127.747 535.256 127.892C536.376 128.053 537.56 127.44 538.431 126.258C539.09 125.363 539.54 124.326 540.016 123.229C540.301 122.571 540.596 121.892 540.941 121.242C544.078 115.336 550.687 113.02 555.826 112.822C561.574 112.601 567.147 114.422 572.109 116.112C572.429 116.22 572.604 116.564 572.504 116.887C572.4 117.223 572.039 117.408 571.706 117.294C566.847 115.64 561.396 113.864 555.87 114.076C551.056 114.261 544.88 116.402 541.985 121.854C541.663 122.459 541.379 123.115 541.104 123.749C540.621 124.863 540.121 126.015 539.376 127.026C538.241 128.568 536.639 129.355 535.096 129.136C533.66 128.931 532.466 127.864 531.82 126.207C531.419 125.179 531.261 124.095 531.109 123.048C531.064 122.735 531.018 122.422 530.966 122.112C530.603 119.942 529.19 118.203 527.367 117.682C525.724 117.212 524.061 117.833 522.803 119.383C520.665 122.019 519.668 127.045 518.94 130.714L518.782 131.508C518.237 134.22 516.929 136.45 515.284 137.474C514.113 138.204 512.803 138.347 511.392 137.901C509.709 137.369 508.467 135.929 507.8 133.735C507.322 132.167 507.336 130.251 507.351 128.222C507.377 124.701 507.404 121.061 504.707 119.498C502.969 118.492 500.79 118.823 499.409 120.304C496.773 123.13 495.55 127.684 494.656 131.01C494.547 131.415 494.448 131.847 494.353 132.265C493.834 134.535 493.246 137.108 490.46 137.899C487.977 138.604 485.718 136.426 484.972 133.911C484.42 132.054 484.461 129.994 484.5 128.003C484.528 126.573 484.555 125.223 484.379 123.956C484.134 122.2 483.23 120.088 481.975 119.451C481.317 119.116 480.604 119.193 479.795 119.685C478.32 120.583 477.797 122.814 477.376 124.607L477.366 124.651C476.571 128.037 475.991 131.513 475.529 134.465C475.464 134.878 475.411 135.3 475.357 135.724C475.147 137.39 474.929 139.112 474.024 140.602C473.202 141.955 471.487 143.082 469.799 142.619C466.97 141.841 467.115 138.824 467.221 136.62C467.256 135.893 467.29 135.208 467.232 134.656C466.971 132.152 466.337 131.195 465.851 130.834C465.493 130.567 465.056 130.501 464.519 130.634C462.626 131.099 462.077 134.13 461.919 135.896L461.124 144.783C461.076 145.318 461.047 145.887 461.018 146.49C460.914 148.567 460.797 150.921 459.783 152.709C459.077 153.955 458.054 154.673 456.903 154.731C455.643 154.798 454.389 154.074 453.468 152.754C451.574 150.041 451.284 146.384 451.374 143.793L451.387 143.419C451.502 140.255 451.659 135.922 448.487 134.701C447.133 134.181 445.852 134.716 445.298 136.032C444.938 136.886 444.838 137.952 444.732 139.079C444.545 141.074 444.334 143.333 442.461 144.611C441.726 145.113 440.898 145.244 440.065 144.991C439.077 144.69 438.21 143.878 437.744 142.816C436.949 141.001 437.015 138.626 437.073 136.53C437.087 136.008 437.101 135.514 437.1 135.055C437.098 132.875 436.534 131.413 435.423 130.709C433.963 129.784 432.007 130.578 430.91 131.797C429.646 133.201 429.041 135.213 428.508 136.989L424.821 149.259C424.011 151.953 422.712 156.276 419.248 156.276Z" fill="#3A6BEA"/>
<path d="M456.582 156.301C458.067 156.301 459.271 155.037 459.271 153.477C459.271 151.917 458.067 150.652 456.582 150.652C455.096 150.652 453.892 151.917 453.892 153.477C453.892 155.037 455.096 156.301 456.582 156.301Z" fill="#102048"/>
<path d="M556.085 116.13C557.57 116.13 558.774 114.866 558.774 113.306C558.774 111.746 557.57 110.481 556.085 110.481C554.6 110.481 553.396 111.746 553.396 113.306C553.396 114.866 554.6 116.13 556.085 116.13Z" fill="#102048"/>
<path d="M658.374 337.798C657.86 338.978 657.274 339.907 656.653 340.61C652.72 344.991 646.983 340.146 643.039 327.341L635.409 310.908C635.319 310.713 635.293 310.494 635.337 310.283L638.234 296.387C638.25 296.31 638.273 296.238 638.308 296.168C638.675 295.433 641.021 290.965 644.712 289.216C646.565 288.338 648.752 288.149 651.202 289.467C658.971 293.66 662.366 328.81 658.374 337.798Z" fill="#102048"/>
<path d="M658.374 337.798C658.284 338.004 658.192 338.202 658.098 338.393C657.691 339.221 656.655 338.863 656.65 337.94C656.491 306.297 651.516 294.23 646.851 290.432C646.153 289.864 646.187 288.631 647.083 288.546C648.351 288.427 649.729 288.675 651.202 289.467C658.971 293.66 662.366 328.81 658.374 337.798Z" fill="#86A7FF"/>
<path d="M610.595 370.274C609.847 371.307 609.081 372.078 608.328 372.621C603.576 375.988 598.991 369.938 597.82 356.536L593.811 338.743C593.764 338.533 593.785 338.314 593.873 338.117L599.601 325.232C599.633 325.159 599.672 325.093 599.723 325.031C600.241 324.39 603.46 320.582 607.421 319.728C609.412 319.297 611.586 319.618 613.7 321.469C620.404 327.351 616.368 362.426 610.595 370.274Z" fill="#102048"/>
<path d="M610.595 370.274C610.461 370.46 610.326 370.637 610.19 370.806C609.617 371.521 608.688 370.952 608.876 370.054C615.352 339.087 613.008 326.163 609.242 321.392C608.684 320.685 608.997 319.496 609.888 319.623C611.146 319.801 612.434 320.36 613.701 321.469C620.404 327.351 616.368 362.426 610.595 370.274Z" fill="#86A7FF"/>
<path d="M604.731 340.391C604.769 340.674 604.685 340.959 604.494 341.171C603.424 342.365 599.552 346.541 594.404 350.439C591.01 353.025 587.066 355.486 583.002 356.892C575.639 359.453 567.882 358.561 562.36 348.682C552.069 330.291 554.292 288.338 556.204 267.198C556.76 261.116 557.293 256.756 557.495 255.179C557.545 254.784 557.827 254.461 558.21 254.353L590.831 245.117C591.417 244.951 592.014 245.343 592.095 245.947L592.348 247.853L593.484 256.289L599.807 303.603L604.731 340.391Z" fill="#1F3C88"/>
<path opacity="0.6" d="M604.731 340.391C604.769 340.674 604.688 340.956 604.497 341.169C602.777 343.087 593.757 352.781 583.847 356.583C583.369 356.766 582.839 356.547 582.631 356.079C572.274 332.736 578.302 291.919 579.924 282.326C580.064 281.494 581.1 281.235 581.641 281.882L599.621 303.381C599.743 303.526 599.82 303.702 599.845 303.889L604.731 340.391Z" fill="#102048"/>
<path d="M643.065 327.208C643.046 327.305 643.019 327.377 642.97 327.464C641.683 329.765 622.381 363.44 600.213 354.745C598.074 353.904 596.149 352.435 594.404 350.439C580.05 334.057 578.269 282.613 578.149 261.975C578.123 257.992 578.161 255.159 578.183 253.941C578.191 253.537 578.439 253.183 578.816 253.037C580.665 252.325 586.386 250.123 592.349 247.853C599.986 244.953 608.006 241.928 608.771 241.765C610.409 241.426 611.819 243.221 613.026 246.422C618.043 259.707 619.592 297.17 619.881 305.57C619.907 306.335 620.746 306.769 621.402 306.376L637.526 296.71C637.948 296.457 638.493 296.547 638.791 296.937C646.655 307.245 643.397 325.475 643.065 327.208Z" fill="#1F3C88"/>
<path d="M580.894 306.836C580.564 306.885 580.259 306.656 580.216 306.325C578.976 296.754 578.261 284.538 578.089 281.382C578.073 281.084 577.925 280.815 577.685 280.637L569.661 274.696C569.396 274.5 569.332 274.13 569.516 273.856C569.712 273.564 570.113 273.494 570.396 273.704L578.982 280.061C579.137 280.176 579.232 280.354 579.242 280.547C579.249 280.695 579.979 295.192 581.401 306.168C581.444 306.492 581.218 306.789 580.894 306.836Z" fill="#3A6BEA"/>
<path d="M612.539 337.292C610.674 337.292 608.8 336.843 607.068 335.934C603.295 333.952 600.79 330.137 600.368 325.729L592.3 241.375C592.269 241.048 592.507 240.758 592.833 240.723C593.163 240.688 593.459 240.93 593.491 241.261L601.558 325.603C601.938 329.581 604.198 333.023 607.602 334.811C611.243 336.723 615.57 336.38 618.896 333.916L643.768 315.496C644.051 315.287 644.452 315.356 644.648 315.648C644.832 315.922 644.768 316.292 644.503 316.489L619.585 334.942C617.482 336.5 615.017 337.292 612.539 337.292Z" fill="#3A6BEA"/>
<path opacity="0.6" d="M612.718 245.646C612.905 246.092 612.726 246.603 612.311 246.849C608.339 249.199 601.865 252.733 593.484 256.289C588.906 258.247 583.755 260.205 578.149 261.975C571.806 263.971 564.864 265.741 557.474 266.989C556.831 267.098 556.262 266.565 556.324 265.915C556.835 260.505 557.308 256.643 557.495 255.179C557.545 254.784 557.827 254.461 558.21 254.353L590.831 245.117C591.417 244.951 592.014 245.343 592.095 245.947L592.182 246.602C592.267 247.241 592.926 247.634 593.528 247.405C600.791 244.65 608.045 241.919 608.771 241.765C610.271 241.454 611.581 242.934 612.718 245.646Z" fill="#102048"/>
<path d="M537.545 135.624C537.555 135.811 537.51 135.989 537.418 136.152L531.235 147.114C531.028 147.482 530.612 147.679 530.195 147.608L523 146.375C522.59 146.305 522.267 145.989 522.187 145.581C521.832 143.766 521.463 141.879 521.112 139.982C519.343 130.416 517.897 120.687 519.535 119.582C520.694 118.792 521.316 120.436 521.638 121.93C521.351 119.369 521.16 115.239 522.714 114.461C524.351 113.645 525.224 117.95 525.595 120.511C525.355 118.013 525.188 113.682 526.802 112.578C528.619 111.335 529.3 117.662 529.515 120.373C529.419 118.202 529.419 113.808 530.985 113.406C532.85 112.942 533.22 122.746 533.268 124.842C533.268 123.712 533.411 120.562 534.965 120.737C536.712 120.922 537.439 133.577 537.545 135.624Z" fill="#F9B384"/>
<path d="M535.308 136.46C536.159 136.249 536.85 137.158 536.419 137.922L531.235 147.114C531.028 147.482 530.612 147.679 530.195 147.608L523 146.375C522.59 146.305 522.267 145.989 522.187 145.581C521.89 144.061 521.583 142.491 521.285 140.907C521.187 140.387 521.513 139.882 522.026 139.755L535.308 136.46Z" fill="#E28B6D"/>
<path d="M585.668 191.995C586.715 191.812 587.746 193.367 587.069 194.186L566.794 218.704L564.569 221.391C564.316 221.696 563.906 221.825 563.528 221.706C556.186 219.404 549.937 213.547 544.706 206.063C530.141 185.251 523.371 151.797 522.434 146.872C522.36 146.484 522.529 146.116 522.856 145.894L536.367 136.712C536.944 136.319 537.745 136.662 537.915 137.338C551.654 191.882 575.955 193.691 585.668 191.995Z" fill="#EB5D60"/>
<path d="M565.767 215.713C566.505 215.638 567.201 216.26 567.08 216.991L566.839 218.438C566.81 218.612 566.735 218.776 566.622 218.912L564.569 221.391C564.316 221.696 563.906 221.825 563.528 221.706C558.052 219.989 553.184 216.295 548.894 211.423C548.132 210.558 549.26 209.408 550.225 210.037C554.923 213.095 560.997 216.195 565.767 215.713Z" fill="#AB4446"/>
<path d="M614.066 246.334C602.185 254.657 587.4 257.055 573.488 257.883C569.436 258.122 565.384 258.197 561.332 258.021C559.372 257.933 557.077 258.021 555.189 257.356C551.603 256.101 553.993 252.962 556.981 250.138C559.762 247.51 560.99 210.106 561.147 204.914C561.159 204.537 561.38 204.216 561.722 204.056L589.498 190.989C589.725 190.882 589.983 190.864 590.222 190.939L611.279 197.514C611.688 197.641 611.97 198.015 611.981 198.443L612.417 215.302L612.668 224.692L612.966 236.191C613.026 238.162 613.875 239.995 615.309 241.275C617.449 243.208 615.919 245.041 614.066 246.334Z" fill="#EB5D60"/>
<path d="M612.63 223.298C612.649 223.982 611.989 224.479 611.361 224.206C608.94 223.156 607.1 221.511 606.138 220.525C605.721 220.097 605.832 219.419 606.338 219.102L610.934 216.229C611.589 215.819 612.443 216.277 612.463 217.05L612.63 223.298Z" fill="#AB4446"/>
<path d="M657.893 148.513C657.833 148.689 657.827 148.871 657.87 149.053L660.806 161.445C660.901 161.847 661.234 162.149 661.644 162.205L668.873 163.191C669.293 163.248 669.704 163.034 669.898 162.656C670.73 161.03 671.595 159.341 672.445 157.637C676.752 149.006 680.794 140.122 679.527 138.57C678.633 137.463 677.588 138.852 676.871 140.186C677.845 137.819 679.156 133.92 677.88 132.706C676.534 131.431 674.523 135.293 673.469 137.635C674.38 135.314 675.722 131.215 674.479 129.671C673.077 127.933 670.697 133.789 669.75 136.322C670.435 134.27 671.635 130.061 670.245 129.205C668.585 128.198 665.553 137.479 664.935 139.473C665.243 138.39 665.966 135.328 664.43 135.029C662.706 134.679 658.554 146.584 657.893 148.513Z" fill="#F9B384"/>
<path d="M659.845 150.01C659.086 149.551 658.15 150.233 658.354 151.096L660.806 161.445C660.901 161.847 661.234 162.149 661.644 162.205L668.873 163.191C669.293 163.248 669.704 163.034 669.898 162.656C670.596 161.293 671.317 159.885 672.033 158.461C672.267 157.996 672.103 157.43 671.657 157.16L659.845 150.01Z" fill="#E28B6D"/>
<path d="M592.753 191.679C592.416 190.933 593.065 190.076 593.878 190.168C602.091 191.095 634.654 191.849 657.079 150.145C657.42 149.511 658.311 149.399 658.764 149.958L669.141 162.751C669.402 163.074 669.445 163.51 669.232 163.866C665.669 169.828 634.939 219.804 606.013 219.705C605.631 219.704 605.289 219.474 605.131 219.125L592.753 191.679Z" fill="#EB5D60"/>
<path d="M587.265 207.395C582.931 207.395 579.836 204.903 578.766 203.899C578.528 203.676 578.54 203.31 578.774 203.083C579.024 202.839 579.427 202.85 579.681 203.089C581.31 204.617 587.158 209.083 594.948 203.275C595.23 203.065 595.638 203.115 595.844 203.4C596.037 203.667 595.985 204.039 595.722 204.237C592.599 206.587 589.731 207.395 587.265 207.395Z" fill="#AB4446"/>
<path d="M560.74 206.951L559.016 236.095C558.996 236.425 559.248 236.709 559.577 236.731C559.907 236.752 560.189 236.502 560.209 236.173L561.933 207.029C561.952 206.699 561.701 206.414 561.371 206.393C561.042 206.371 560.759 206.621 560.74 206.951Z" fill="#AB4446"/>
<path d="M663.179 172.494C662.938 172.747 662.534 172.748 662.299 172.488C658.039 167.768 653.961 159.748 652.915 157.621C652.772 157.331 652.89 156.986 653.177 156.835C653.48 156.676 653.854 156.795 654.006 157.102C655.076 159.26 659.116 167.144 663.186 171.645C663.405 171.888 663.404 172.258 663.179 172.494Z" fill="#AB4446"/>
<path d="M539.402 146.177L524.912 155.348C524.623 155.531 524.527 155.92 524.697 156.217C524.867 156.514 525.24 156.606 525.529 156.423L540.019 147.253C540.308 147.07 540.405 146.681 540.235 146.384C540.064 146.087 539.692 145.994 539.402 146.177Z" fill="#AB4446"/>
<path d="M585.468 215.825C586.568 215.825 587.46 214.888 587.46 213.733C587.46 212.577 586.568 211.64 585.468 211.64C584.368 211.64 583.476 212.577 583.476 213.733C583.476 214.888 584.368 215.825 585.468 215.825Z" fill="#652B14"/>
<path d="M596.956 176.161C597.499 176.235 597.881 176.731 597.814 177.274L595.757 193.979C595.258 198.033 591.726 200.893 587.869 200.369L587.865 200.369C584.008 199.845 581.286 196.135 581.785 192.08L583.839 175.401C583.907 174.848 584.414 174.457 584.966 174.532L596.956 176.161Z" fill="#F9B384"/>
<path d="M589.189 181.843C589.682 182.011 589.959 182.525 589.787 183.017C589.141 184.867 587.267 189.182 583.274 191.366C582.62 191.723 581.898 191.159 581.989 190.419L583.143 181.051C583.221 180.421 583.858 180.021 584.459 180.227L589.189 181.843Z" fill="#102048"/>
<path d="M580.593 161.858C580.156 161.894 579.794 162.211 579.704 162.64C579.183 165.133 577.494 173.57 577.145 179.857C576.906 184.152 582.342 190.827 592.047 181.564L597.745 175.877C597.922 175.701 598.027 175.464 598.038 175.215L598.454 165.964C598.472 165.559 598.245 165.184 597.878 165.013L589.769 161.228C589.611 161.155 589.437 161.123 589.263 161.138L580.593 161.858Z" fill="#F9B384"/>
<path d="M597.158 174.998C596.54 175.003 596.057 174.451 596.099 173.835C596.209 172.197 596.182 169.249 594.799 167.66C594.576 167.405 594.223 167.341 593.895 167.423C591.463 168.032 580.994 170.003 574.893 160.755C574.391 159.995 575.23 158.916 576.14 158.927C577.808 158.946 580.137 158.545 582.605 156.789C586.833 153.783 594.029 151.925 598.183 158.923C598.38 159.256 598.742 159.465 599.127 159.504C601.206 159.711 607.374 161.39 601.393 174.385C601.233 174.733 600.878 174.968 600.495 174.971L597.158 174.998Z" fill="#652B14"/>
<path d="M601.697 178.481C603.326 176.035 603.052 172.881 601.084 171.436C599.117 169.991 596.202 170.802 594.573 173.249C592.945 175.695 593.219 178.849 595.186 180.294C597.154 181.739 600.069 180.927 601.697 178.481Z" fill="#F9B384"/>
<path d="M580.787 171.888C580.787 172.35 580.43 172.725 579.99 172.725C579.55 172.725 579.193 172.35 579.193 171.888C579.193 171.426 579.55 171.051 579.99 171.051C580.43 171.051 580.787 171.426 580.787 171.888Z" fill="#102048"/>
<path d="M586.813 172.359C586.813 172.821 586.456 173.196 586.016 173.196C585.576 173.196 585.219 172.821 585.219 172.359C585.219 171.897 585.576 171.522 586.016 171.522C586.456 171.522 586.813 171.897 586.813 172.359Z" fill="#102048"/>
<path d="M580.936 178.531C580.862 178.531 580.788 178.502 580.73 178.444C580.027 177.741 579.733 177.038 579.855 176.357C579.979 175.664 580.511 175.173 580.932 174.885C581.173 174.72 581.365 174.484 581.432 174.198L581.791 172.651C581.83 172.482 581.992 172.38 582.153 172.42C582.313 172.461 582.411 172.631 582.372 172.799L581.873 174.949C581.851 175.043 581.786 175.121 581.698 175.16C581.686 175.165 580.588 175.652 580.442 176.474C580.361 176.933 580.596 177.443 581.143 177.99C581.262 178.11 581.266 178.308 581.153 178.434C581.094 178.498 581.015 178.531 580.936 178.531Z" fill="#102048"/>
<path d="M582.032 169.534C581.95 169.534 581.869 169.5 581.81 169.431C580.585 168.006 578.802 168.965 578.784 168.975C578.638 169.056 578.457 168.997 578.381 168.843C578.304 168.69 578.36 168.5 578.506 168.419C578.528 168.407 580.721 167.229 582.253 169.01C582.364 169.138 582.354 169.337 582.232 169.453C582.175 169.507 582.103 169.534 582.032 169.534Z" fill="#102048"/>
<path d="M588.556 170.79C588.474 170.79 588.392 170.755 588.333 170.685C586.821 168.911 584.845 169.975 584.762 170.021C584.616 170.101 584.435 170.043 584.357 169.89C584.28 169.737 584.335 169.548 584.481 169.467C584.505 169.453 586.951 168.121 588.778 170.266C588.888 170.396 588.878 170.594 588.755 170.709C588.698 170.763 588.627 170.79 588.556 170.79Z" fill="#102048"/>
<path d="M581.7 180.57C581.262 180.57 580.972 180.521 580.936 180.514C580.773 180.485 580.664 180.323 580.691 180.153C580.719 179.982 580.872 179.866 581.035 179.895C581.06 179.9 583.536 180.309 585.096 178.478C585.206 178.349 585.394 178.339 585.518 178.454C585.641 178.569 585.651 178.768 585.541 178.897C584.317 180.334 582.657 180.57 581.7 180.57Z" fill="#102048"/>
<path opacity="0.4" d="M590.71 179.159C592.312 179.159 593.611 177.795 593.611 176.112C593.611 174.429 592.312 173.064 590.71 173.064C589.107 173.064 587.808 174.429 587.808 176.112C587.808 177.795 589.107 179.159 590.71 179.159Z" fill="#EB5D60"/>
<path d="M596.673 176.857C596.649 176.857 596.624 176.854 596.6 176.847C596.44 176.805 596.343 176.634 596.384 176.466C596.397 176.408 596.737 175.053 597.903 174.403C598.681 173.969 599.625 173.955 600.709 174.365C600.864 174.423 600.945 174.603 600.889 174.766C600.833 174.929 600.661 175.014 600.507 174.955C599.588 174.609 598.806 174.609 598.184 174.957C597.249 175.479 596.966 176.609 596.963 176.621C596.929 176.763 596.807 176.857 596.673 176.857Z" fill="#102048"/>
<path d="M134.262 256.447C133.821 256.428 133.419 256.7 133.274 257.118L129.243 268.727C129.051 269.279 129.372 269.877 129.938 270.023L143.127 273.418C143.674 273.559 144.228 273.219 144.352 272.669L147.599 258.208C147.736 257.6 147.289 257.017 146.667 256.99L134.262 256.447Z" fill="#E28B6D"/>
<path d="M156.729 249.811C155.4 258.061 148.884 263.441 139.639 261.331C132.336 259.664 127.309 253.93 130.248 243.943C132.749 235.445 139.48 230.034 146.931 230.614C156.173 231.333 158.204 240.656 156.729 249.811Z" fill="#102048"/>
<path d="M48.2689 390.134C47.9775 390.105 47.6881 390.206 47.4773 390.409L25.2902 411.802C24.6425 412.426 25.0846 413.522 25.9843 413.522H55.6779C56.1237 413.522 56.5157 413.227 56.639 412.798L62.418 392.708C62.5907 392.107 62.1764 391.497 61.5545 391.436L48.2689 390.134Z" fill="#1F3C88"/>
<path d="M83.8103 388.909C83.7528 388.691 83.5451 388.641 83.3216 388.673L63.393 391.463C63.002 391.518 62.6798 391.798 62.5706 392.177L56.798 412.245C56.6141 412.884 57.0939 413.522 57.759 413.522H85.7425C86.3364 413.522 86.7994 413.008 86.736 412.418C86.2563 407.949 84.446 391.323 83.8103 388.909Z" fill="#E28B6D"/>
<path d="M145.678 380.65C145.767 380.939 145.721 381.253 145.551 381.504L124.042 413.344C123.96 413.47 123.82 413.545 123.67 413.545H67.1617C67.1478 413.545 67.1366 413.534 67.1366 413.52L68.5828 399.824L69.5629 390.598L70.0432 386.069C70.0912 385.616 70.4388 385.253 70.889 385.185L101.215 380.627C101.757 380.545 102.132 380.042 102.056 379.5L99.822 363.471C99.809 363.379 99.7829 363.288 99.7452 363.202C97.2112 357.446 96.577 351.682 96.8024 346.673C97.1499 339.228 99.4025 333.411 100.155 331.655C100.302 331.313 100.633 331.099 101.004 331.086L129.313 330.092C129.764 330.076 130.17 330.365 130.304 330.797L131.464 334.559L135.17 346.585L145.678 380.65Z" fill="#7D69ED"/>
<path d="M79.1459 390.134C78.8544 390.105 78.5651 390.206 78.3542 390.409L56.1672 411.802C55.5195 412.426 55.9616 413.522 56.8613 413.522H86.5552C87.001 413.522 87.393 413.227 87.5162 412.798L93.2949 392.708C93.4677 392.107 93.0534 391.497 92.4315 391.436L79.1459 390.134Z" fill="#1F3C88"/>
<path d="M114.687 388.909C114.63 388.691 114.422 388.641 114.198 388.673L94.2699 391.463C93.8789 391.518 93.5567 391.798 93.4475 392.177L87.6749 412.245C87.491 412.884 87.9708 413.522 88.6359 413.522H116.62C117.214 413.522 117.677 413.008 117.613 412.418C117.133 407.949 115.323 391.323 114.687 388.909Z" fill="#E28B6D"/>
<path d="M170.118 400.364C168.122 404.369 165.337 407.118 162.003 409.013C152.106 414.675 137.393 412.754 124.042 413.344C121.962 413.432 119.954 413.495 118.042 413.545C113.141 413.646 108.886 413.621 105.827 413.545C105.372 413.545 104.954 413.533 104.548 413.52C103.358 413.489 102.42 413.457 101.779 413.434C101.233 413.414 100.808 412.956 100.825 412.41L101.5 390.447L101.664 384.933C101.68 384.426 102.071 384.011 102.576 383.967L135.938 381.022C136.597 380.964 137.019 380.294 136.786 379.674L124.855 347.916L120.416 336.098C120.173 335.451 120.643 334.759 121.334 334.747L131.464 334.559L151.544 334.208L154.199 334.158C154.609 334.15 154.982 334.394 155.137 334.774C155.409 335.441 155.884 336.616 156.505 338.2C156.636 338.539 156.768 338.878 156.911 339.254C161.082 349.975 169.772 374.793 171.087 390.083C171.481 394.489 171.254 398.105 170.118 400.364Z" fill="#7D69ED"/>
<path d="M156.6 338.446C156.778 338.908 156.589 339.426 156.146 339.646C153.674 340.877 145.46 344.695 135.17 346.585C132.05 347.163 128.608 347.64 124.855 347.916C117.092 348.526 108.007 348.377 97.6873 346.811C97.1836 346.734 96.8192 346.288 96.8536 345.779C97.3294 338.765 99.4329 333.34 100.155 331.655C100.302 331.313 100.633 331.099 101.004 331.086L129.313 330.092C129.764 330.076 130.17 330.365 130.304 330.797L131.243 333.841C131.374 334.266 131.771 334.554 132.216 334.546L151.182 334.214C151.416 334.21 151.644 334.288 151.827 334.435L156.299 338.034C156.434 338.143 156.537 338.285 156.6 338.446Z" fill="#5B4DAD"/>
<path opacity="0.4" d="M170.118 400.364C168.321 403.971 165.883 406.559 162.981 408.422C162.472 408.749 161.799 408.515 161.618 407.938C161.193 406.576 160.963 405.117 160.963 403.603C160.963 397.479 164.731 392.277 169.965 390.423C170.545 390.217 171.137 390.638 171.178 391.252C171.433 395.128 171.152 398.308 170.118 400.364Z" fill="#5B4DAD"/>
<path d="M101.41 412.816C101.4 413.146 101.123 413.406 100.793 413.395C100.463 413.383 100.205 413.108 100.215 412.779L101.094 383.998C101.104 383.7 101.331 383.454 101.628 383.42C101.978 383.381 136.327 379.562 149.83 380.241C150.174 380.258 150.421 380.554 150.401 380.898C150.381 381.246 150.096 381.511 149.748 381.494C137.865 380.903 109.651 383.819 103.118 384.52C102.623 384.573 102.26 384.982 102.245 385.481L101.41 412.816Z" fill="#5B4DAD"/>
<path d="M130.698 381.313C130.382 381.439 130.025 381.278 129.91 380.958L122.538 360.51C122.464 360.305 122.326 360.13 122.144 360.01C121.076 359.297 118.376 357.408 116.291 355.188C116.068 354.951 116.082 354.58 116.315 354.352C116.565 354.108 116.968 354.123 117.209 354.377C119.703 357.005 123.181 359.209 123.218 359.232C123.333 359.305 123.421 359.414 123.468 359.542L131.041 380.551C131.151 380.856 130.999 381.193 130.698 381.313Z" fill="#5B4DAD"/>
<path d="M81.0705 405.14L77.115 413.312C76.9697 413.612 77.0904 413.983 77.3846 414.14C77.6788 414.297 78.0351 414.181 78.1804 413.881L82.1359 405.709C82.2812 405.409 82.1605 405.038 81.8663 404.881C81.5721 404.724 81.2158 404.84 81.0705 405.14Z" fill="white"/>
<path d="M47.6026 404.512L43.6471 412.683C43.5018 412.983 43.6225 413.354 43.9167 413.511C44.2109 413.668 44.5672 413.552 44.7125 413.252L48.668 405.081C48.8133 404.781 48.6926 404.41 48.3984 404.253C48.1042 404.096 47.7479 404.212 47.6026 404.512Z" fill="white"/>
<path d="M111.05 277.214C110.635 277.162 110.232 277.373 110.04 277.745C101.865 293.616 96.7555 310.712 93.6464 328.605C93.1369 331.537 94.7062 334.453 97.3767 335.461C116.69 342.75 136.751 343.521 157.427 338.94C160.155 338.335 162.086 335.767 162.025 332.84C161.818 322.842 161.617 299.941 163.611 284.825C163.684 284.271 163.294 283.766 162.739 283.696L111.05 277.214Z" fill="#FBC343"/>
<path d="M123.994 233.517C124.002 233.508 124.003 233.507 124.012 233.499C124.275 233.251 133.658 224.388 132.995 223.305C132.23 222.055 130.725 222.395 129.989 222.658C129.964 222.666 129.964 222.668 129.989 222.658C131.223 222.133 134.671 220.52 133.767 219.225C133.22 218.441 132.412 216.841 132.906 216.023C133.276 215.411 133.301 214.907 132.472 214.831C132.009 214.789 131.529 214.809 131.057 214.867C130.359 214.953 129.569 213.114 128.887 212.948C128.231 212.789 120.618 215.924 111.327 221.676C110.859 221.966 110.718 222.58 111.009 223.046C113.502 227.034 117.015 232.461 119.522 236.311C119.87 236.844 120.62 236.919 121.069 236.467L123.994 233.517Z" fill="#E28B6D"/>
<path d="M190.142 261.802L182.508 238.401C182.319 237.82 181.659 237.544 181.112 237.816L167.441 244.617C167.029 244.822 166.81 245.282 166.912 245.732C168.611 253.236 170.476 260.748 171.101 263.241C171.224 263.735 170.951 264.242 170.471 264.412C142.062 274.504 112.242 257.421 106.549 253.894C106.028 253.572 105.952 252.87 106.367 252.418L119.672 237.919C119.981 237.582 120.023 237.08 119.774 236.698C117.257 232.835 113.594 227.18 111.016 223.058C110.722 222.587 110.102 222.443 109.635 222.742C102.988 226.997 95.6707 232.519 89.4995 239.086C86.1746 242.624 83.9921 247.171 83.2681 252.084C82.374 258.148 83.765 264.34 87.1457 269.345L105.709 293.927C105.88 294.154 106.14 294.297 106.423 294.321L161.408 298.91C161.633 298.929 161.858 298.871 162.046 298.745L182.324 285.212C184.525 283.743 186.416 281.816 187.88 279.55C191.248 274.337 192.087 267.762 190.142 261.802Z" fill="#FBC343"/>
<path d="M87.0466 242.21C86.9519 242.355 86.9468 242.54 87.0285 242.693C88.0446 244.588 88.7055 246.734 88.8762 248.965C89.2391 253.71 87.5584 258.847 84.3439 263.084C84.252 263.205 84.2232 263.364 84.2751 263.507C84.3969 263.842 84.8474 263.909 85.0625 263.624C88.3994 259.21 90.1498 253.856 89.7702 248.89C89.5894 246.525 88.8859 244.252 87.8057 242.241C87.6454 241.943 87.2323 241.927 87.0466 242.21Z" fill="white"/>
<path d="M190.887 265.019C190.844 264.694 190.489 264.527 190.211 264.7C187.673 266.273 185.482 268.455 183.954 271.144C181.584 275.311 180.971 280.368 181.942 285.057C181.977 285.23 182.177 285.31 182.324 285.212C182.627 285.01 182.755 284.624 182.692 284.265C181.938 279.976 182.569 275.414 184.723 271.627C186.174 269.074 188.251 266.995 190.659 265.499C190.823 265.397 190.913 265.21 190.887 265.019Z" fill="white"/>
<path d="M161.931 326.643C161.927 326.325 161.618 326.098 161.314 326.192C153.657 328.558 145.737 329.996 137.675 329.516C131.644 329.156 125.627 327.709 119.809 326.31C116.555 325.528 113.192 324.719 109.85 324.105C104.344 323.092 99.4137 322.794 94.9962 323.201C94.7915 323.22 94.6247 323.372 94.5844 323.573C94.5227 323.882 94.7783 324.161 95.0918 324.132C99.4245 323.735 104.273 324.035 109.696 325.032C113.014 325.642 116.367 326.448 119.609 327.227C125.463 328.636 131.517 330.092 137.625 330.455C138.694 330.519 139.76 330.549 140.823 330.549C147.908 330.549 154.86 329.18 161.599 327.095C161.798 327.034 161.933 326.852 161.931 326.643Z" fill="white"/>
<path d="M119.514 264.831C119.868 263.668 120.222 262.47 120.421 261.234C120.453 261.037 120.34 260.845 120.155 260.769C119.884 260.657 119.582 260.835 119.535 261.124C119.348 262.267 119.015 263.38 118.66 264.545C118.302 265.723 117.932 266.94 117.733 268.192C116.645 275.043 121.396 282.627 128.321 285.098C130.239 285.782 132.296 286.117 134.417 286.117C138.943 286.117 143.754 284.591 148.092 281.668C153.642 277.931 157.873 272.541 161.311 267.534C161.535 267.207 161.252 266.766 160.861 266.825C160.739 266.844 160.63 266.912 160.56 267.014C157.176 271.939 153.023 277.229 147.608 280.876C141.465 285.015 134.362 286.263 128.609 284.206C122.081 281.878 117.599 274.762 118.618 268.346C118.806 267.161 119.166 265.977 119.514 264.831Z" fill="white"/>
<path d="M181.974 236.762C180.104 231.024 177.62 225.52 174.47 220.437C173.158 218.32 171.945 216.62 171.317 216.4C169.986 215.934 170.796 220.568 171.302 222.987C171.314 223.045 171.316 223.044 171.302 222.987C170.841 221.183 169.866 218.243 168.329 217.813C166.425 217.279 168.077 223.756 168.617 225.718C168.623 225.739 168.624 225.739 168.617 225.718C168.343 224.853 167.678 223.242 166.387 222.677C165.571 222.32 165.653 224.042 165.983 226.024C166.014 226.206 164.125 227.39 163.947 227.437C163.124 227.653 164.611 235.403 166.46 243.722C166.601 244.355 167.299 244.687 167.88 244.399L181.643 237.551C181.934 237.407 182.074 237.071 181.974 236.762Z" fill="#E28B6D"/>
<path d="M72.1573 228.539C72.1451 228.887 71.8522 229.16 71.506 229.125C68.0251 228.77 64.8177 226.612 63.02 223.48C62.7356 222.985 62.1167 222.771 61.5928 222.998C60.8531 223.32 60.0871 223.58 59.2914 223.761C55.5058 224.625 51.6245 223.208 49.8529 220.317C49.043 218.995 48.6974 217.526 48.6335 216.032C48.5992 215.229 47.7267 214.656 46.9862 214.969C43.5479 216.426 39.6093 216.764 37.4173 213.807C35.4972 211.217 36.2071 207.626 36.9084 205.15C39.6104 195.609 45.037 186.816 52.221 180.317C52.4813 180.081 52.8854 180.117 53.1045 180.391C53.3091 180.648 53.2764 181.019 53.033 181.239C46.0046 187.585 40.6952 196.181 38.0538 205.508C37.059 209.02 37.1565 211.412 38.3601 213.036C39.7648 214.93 43.3287 215.97 48.7515 212.667C48.8507 212.607 48.9187 212.507 48.9403 212.393C49.1103 211.492 49.3314 210.62 49.5604 209.806C51.8558 201.633 55.7093 193.766 60.7039 187.052C63.1959 183.703 65.9217 182.365 68.1825 183.382C70.2072 184.292 70.9725 186.75 70.8266 188.649C70.668 190.713 69.6792 192.52 68.7652 194.052C64.1454 201.794 57.8052 208.361 50.3787 213.112C50.1332 213.269 49.9643 213.523 49.9286 213.813C49.6783 215.843 49.8061 217.92 50.8581 219.637C52.6172 222.507 56.3311 223.149 59.038 222.534C59.825 222.354 60.5851 222.088 61.321 221.755C61.767 221.553 61.9663 221.042 61.8472 220.567C60.8927 216.763 61.853 212.518 64.4234 209.612C65.9791 207.853 67.8607 207.117 69.456 207.643C70.345 207.936 71.0654 208.595 71.5393 209.549C72.1312 210.74 72.252 212.227 71.8626 213.526C71.2238 215.657 69.5764 217.233 68.0827 218.544C66.9031 219.579 65.6658 220.6 64.3455 221.477C63.9235 221.758 63.7488 222.304 63.9988 222.745C65.5806 225.532 68.4851 227.52 71.5549 227.866C71.899 227.904 72.1695 228.193 72.1573 228.539ZM68.4096 208.733C67.2621 208.733 66.0914 209.571 65.2987 210.467C63.2054 212.833 62.308 216.327 62.8523 219.511C62.9629 220.157 63.6961 220.435 64.2322 220.057C65.3078 219.299 66.3319 218.445 67.3159 217.582C68.7422 216.33 70.18 214.957 70.7221 213.15C71.014 212.177 70.9208 211.02 70.4791 210.131C70.2529 209.676 69.8298 209.083 69.0977 208.842C68.8718 208.767 68.6411 208.733 68.4096 208.733ZM66.6158 184.3C64.5241 184.3 62.5045 186.672 61.6454 187.826C56.7425 194.416 52.9599 202.139 50.7069 210.161C50.5539 210.706 51.1483 211.123 51.6125 210.799C58.0828 206.274 63.6206 200.31 67.7522 193.386C68.5915 191.98 69.4984 190.33 69.6353 188.549C69.7515 187.037 69.1282 185.173 67.7118 184.536C67.3482 184.373 66.981 184.3 66.6158 184.3Z" fill="#102048"/>
<path d="M695.798 412.894H0.62767C0.281017 412.894 0 413.175 0 413.522C0 413.868 0.281024 414.149 0.627676 414.149H695.798C696.145 414.149 696.426 413.868 696.426 413.522C696.426 413.175 696.145 412.894 695.798 412.894Z" fill="#102048"/>
</svg>
